<svg xmlns="http://www.w3.org/2000/svg" viewBox="0 0 1600 900" role="img" aria-labelledby="title desc">
  <title id="title">Calendly versus built-in booking illustration</title>
  <desc id="desc">An editorial illustration comparing a dedicated scheduling tool with a lighter built-in booking setup using clearly different structures.</desc>
  <defs>
    <linearGradient id="bg" x1="0%" y1="0%" x2="100%" y2="100%">
      <stop offset="0%" stop-color="#f8fafc" />
      <stop offset="100%" stop-color="#eef8f7" />
    </linearGradient>
  </defs>
  <rect width="1600" height="900" fill="url(#bg)" />
  <circle cx="280" cy="730" r="180" fill="#eaf4fb" />
  <rect x="150" y="140" width="1300" height="620" rx="42" fill="#ffffff" stroke="#d8e5ec" stroke-width="4" />

  <rect x="210" y="210" width="520" height="480" rx="30" fill="#102430" />
  <rect x="870" y="210" width="520" height="480" rx="30" fill="#f8fbfd" stroke="#d8e5ec" stroke-width="3" />
  <path d="M730 450h140" stroke="#c9934a" stroke-width="8" stroke-linecap="round" />
  <path d="M820 450l-16-16m16 16l-16 16" stroke="#c9934a" stroke-width="8" stroke-linecap="round" stroke-linejoin="round" />

  <rect x="250" y="248" width="186" height="36" rx="18" fill="#d6faf5" opacity=".16" />
  <text x="287" y="271" font-family="Segoe UI, Arial, sans-serif" font-size="16" font-weight="700" fill="#d6faf5">Calendly-style</text>
  <text x="250" y="330" font-family="Segoe UI, Arial, sans-serif" font-size="24" font-weight="700" fill="#d6faf5">Routing + schedule</text>
  <rect x="250" y="348" width="210" height="20" rx="10" fill="#d6faf5" opacity=".16" />
  <rect x="250" y="394" width="190" height="34" rx="17" fill="#d6faf5" opacity=".14" />
  <rect x="456" y="394" width="146" height="34" rx="17" fill="#d6faf5" opacity=".14" />
  <text x="292" y="416" font-family="Segoe UI, Arial, sans-serif" font-size="13" font-weight="700" fill="#d6faf5">discovery</text>
  <text x="495" y="416" font-family="Segoe UI, Arial, sans-serif" font-size="13" font-weight="700" fill="#d6faf5">strategy</text>
  <rect x="250" y="456" width="420" height="156" rx="24" fill="#d6faf5" opacity=".1" />
  <rect x="286" y="486" width="70" height="70" rx="18" fill="#d6faf5" opacity=".18" />
  <rect x="378" y="486" width="70" height="70" rx="18" fill="#d6faf5" opacity=".18" />
  <rect x="470" y="486" width="70" height="70" rx="18" fill="#d6faf5" opacity=".18" />
  <rect x="562" y="486" width="70" height="70" rx="18" fill="#d6faf5" opacity=".18" />
  <text x="305" y="529" font-family="Segoe UI, Arial, sans-serif" font-size="13" font-weight="700" fill="#d6faf5">Mon</text>
  <text x="398" y="529" font-family="Segoe UI, Arial, sans-serif" font-size="13" font-weight="700" fill="#d6faf5">Tue</text>
  <text x="489" y="529" font-family="Segoe UI, Arial, sans-serif" font-size="13" font-weight="700" fill="#d6faf5">Wed</text>
  <text x="582" y="529" font-family="Segoe UI, Arial, sans-serif" font-size="13" font-weight="700" fill="#d6faf5">Thu</text>
  <rect x="286" y="570" width="162" height="18" rx="9" fill="#d6faf5" opacity=".72" />
  <rect x="470" y="570" width="110" height="18" rx="9" fill="#d6faf5" opacity=".44" />
  <rect x="250" y="634" width="200" height="28" rx="14" fill="#d6faf5" opacity=".14" />
  <text x="290" y="653" font-family="Segoe UI, Arial, sans-serif" font-size="13" font-weight="700" fill="#d6faf5">reminders + routing</text>

  <rect x="910" y="248" width="148" height="36" rx="18" fill="#d8f3f1" />
  <text x="945" y="271" font-family="Segoe UI, Arial, sans-serif" font-size="16" font-weight="700" fill="#0f766e">built-in</text>
  <text x="910" y="330" font-family="Segoe UI, Arial, sans-serif" font-size="24" font-weight="700" fill="#122838">Simple booking</text>
  <rect x="910" y="348" width="190" height="20" rx="10" fill="#173042" opacity=".12" />
  <rect x="910" y="396" width="250" height="54" rx="20" fill="#ffffff" stroke="#d9e5ec" stroke-width="3" />
  <rect x="910" y="468" width="250" height="54" rx="20" fill="#ffffff" stroke="#d9e5ec" stroke-width="3" />
  <text x="944" y="428" font-family="Segoe UI, Arial, sans-serif" font-size="15" font-weight="700" fill="#334b5c">one call type</text>
  <text x="944" y="500" font-family="Segoe UI, Arial, sans-serif" font-size="15" font-weight="700" fill="#334b5c">calendar sync</text>
  <rect x="1210" y="398" width="128" height="20" rx="10" fill="#ecfdf3" />
  <rect x="1210" y="470" width="108" height="20" rx="10" fill="#fff0db" />
  <text x="1242" y="412" font-family="Segoe UI, Arial, sans-serif" font-size="11" font-weight="700" fill="#15803d">lean</text>
  <text x="1240" y="484" font-family="Segoe UI, Arial, sans-serif" font-size="11" font-weight="700" fill="#8a5d27">basic</text>
  <rect x="910" y="556" width="428" height="96" rx="24" fill="#f8fbfd" stroke="#d9e5ec" stroke-width="3" />
  <text x="944" y="594" font-family="Segoe UI, Arial, sans-serif" font-size="16" font-weight="700" fill="#334b5c">Schedule -> Client -> Review</text>
  <rect x="944" y="614" width="126" height="14" rx="7" fill="#173042" opacity=".12" />
  <rect x="1090" y="614" width="94" height="14" rx="7" fill="#173042" opacity=".08" />
  <rect x="1202" y="614" width="90" height="14" rx="7" fill="#173042" opacity=".08" />
</svg>
