<svg xmlns="http://www.w3.org/2000/svg" viewBox="0 0 1600 900" role="img" aria-labelledby="title desc">
  <title id="title">Solo freelancer lean budget blueprint illustration</title>
  <desc id="desc">An editorial blueprint illustration showing a lean stack map, stage-based layers, upgrade triggers, and overbuying boundaries for a solo freelancer setup.</desc>
  <defs>
    <linearGradient id="bg" x1="0%" y1="0%" x2="100%" y2="100%">
      <stop offset="0%" stop-color="#f6fafc" />
      <stop offset="100%" stop-color="#edf4fb" />
    </linearGradient>
    <linearGradient id="navy" x1="0%" y1="0%" x2="100%" y2="100%">
      <stop offset="0%" stop-color="#17355f" />
      <stop offset="100%" stop-color="#224f86" />
    </linearGradient>
  </defs>
  <rect width="1600" height="900" fill="url(#bg)" />
  <circle cx="1286" cy="196" r="154" fill="#e2eefb" />
  <circle cx="278" cy="712" r="144" fill="#e9f6f3" />

  <rect x="120" y="118" width="1360" height="664" rx="42" fill="#ffffff" stroke="#d9e5ec" stroke-width="4" />

  <text x="186" y="208" font-family="Segoe UI, Arial, sans-serif" font-size="30" font-weight="700" fill="#122838">Lean stack blueprint</text>
  <rect x="186" y="226" width="238" height="20" rx="10" fill="#173042" opacity=".12" />

  <rect x="186" y="284" width="1228" height="110" rx="32" fill="#f8fbfd" stroke="#d9e5ec" stroke-width="3" />
  <text x="226" y="328" font-family="Segoe UI, Arial, sans-serif" font-size="18" font-weight="700" fill="#334b5c">stage</text>
  <rect x="332" y="308" width="214" height="52" rx="26" fill="#d8f3f1" />
  <rect x="576" y="308" width="214" height="52" rx="26" fill="#dfe9fb" />
  <rect x="820" y="308" width="214" height="52" rx="26" fill="#fff0db" />
  <rect x="1064" y="308" width="314" height="52" rx="26" fill="#ecfdf3" />
  <text x="395" y="340" font-family="Segoe UI, Arial, sans-serif" font-size="15" font-weight="700" fill="#0f766e">starter</text>
  <text x="639" y="340" font-family="Segoe UI, Arial, sans-serif" font-size="15" font-weight="700" fill="#36589a">stable</text>
  <text x="886" y="340" font-family="Segoe UI, Arial, sans-serif" font-size="15" font-weight="700" fill="#8a5d27">growing</text>
  <text x="1160" y="340" font-family="Segoe UI, Arial, sans-serif" font-size="15" font-weight="700" fill="#18794e">upgrade only when pressure repeats</text>

  <rect x="186" y="438" width="480" height="268" rx="32" fill="url(#navy)" />
  <text x="230" y="488" font-family="Segoe UI, Arial, sans-serif" font-size="25" font-weight="700" fill="#eef6ff">Minimum reliable stack</text>
  <rect x="230" y="506" width="216" height="18" rx="9" fill="#eef6ff" opacity=".16" />
  <rect x="230" y="548" width="196" height="38" rx="19" fill="#d8f3f1" />
  <rect x="446" y="548" width="156" height="38" rx="19" fill="#dfe9fb" />
  <rect x="230" y="604" width="176" height="38" rx="19" fill="#fff0db" />
  <rect x="426" y="604" width="176" height="38" rx="19" fill="#dff7e8" />
  <text x="279" y="572" font-family="Segoe UI, Arial, sans-serif" font-size="14" font-weight="700" fill="#0f766e">client system</text>
  <text x="492" y="572" font-family="Segoe UI, Arial, sans-serif" font-size="14" font-weight="700" fill="#36589a">docs</text>
  <text x="276" y="628" font-family="Segoe UI, Arial, sans-serif" font-size="14" font-weight="700" fill="#8a5d27">invoice</text>
  <text x="484" y="628" font-family="Segoe UI, Arial, sans-serif" font-size="14" font-weight="700" fill="#18794e">schedule</text>
  <rect x="230" y="662" width="236" height="12" rx="6" fill="#eef6ff" opacity=".55" />
  <rect x="230" y="684" width="184" height="12" rx="6" fill="#eef6ff" opacity=".36" />

  <rect x="706" y="438" width="318" height="268" rx="32" fill="#f8fbfd" stroke="#d9e5ec" stroke-width="3" />
  <text x="746" y="488" font-family="Segoe UI, Arial, sans-serif" font-size="24" font-weight="700" fill="#122838">Upgrade triggers</text>
  <rect x="746" y="506" width="154" height="18" rx="9" fill="#173042" opacity=".12" />
  <rect x="746" y="550" width="236" height="46" rx="20" fill="#ffffff" stroke="#d9e5ec" stroke-width="3" />
  <rect x="746" y="610" width="236" height="46" rx="20" fill="#ffffff" stroke="#d9e5ec" stroke-width="3" />
  <text x="780" y="579" font-family="Segoe UI, Arial, sans-serif" font-size="14" font-weight="700" fill="#334b5c">handoffs hidden weekly</text>
  <text x="780" y="639" font-family="Segoe UI, Arial, sans-serif" font-size="14" font-weight="700" fill="#334b5c">manual step repeats daily</text>
  <circle cx="950" cy="573" r="10" fill="#0f8b8d" />
  <circle cx="950" cy="633" r="10" fill="#0f8b8d" />

  <rect x="1064" y="438" width="350" height="268" rx="32" fill="#f8fbfd" stroke="#d9e5ec" stroke-width="3" />
  <text x="1104" y="488" font-family="Segoe UI, Arial, sans-serif" font-size="24" font-weight="700" fill="#122838">Do not buy yet</text>
  <rect x="1104" y="506" width="136" height="18" rx="9" fill="#173042" opacity=".12" />
  <rect x="1104" y="548" width="154" height="34" rx="17" fill="#fee2e2" />
  <rect x="1274" y="548" width="92" height="34" rx="17" fill="#fee2e2" />
  <rect x="1104" y="600" width="262" height="42" rx="21" fill="#ffffff" stroke="#d9e5ec" stroke-width="3" />
  <text x="1140" y="571" font-family="Segoe UI, Arial, sans-serif" font-size="13" font-weight="700" fill="#b91c1c">duplicate tools</text>
  <text x="1299" y="571" font-family="Segoe UI, Arial, sans-serif" font-size="13" font-weight="700" fill="#b91c1c">ops suite</text>
  <text x="1138" y="626" font-family="Segoe UI, Arial, sans-serif" font-size="14" font-weight="700" fill="#334b5c">extra software before repeat need</text>
  <path d="M1188 660h110" stroke="#d9e5ec" stroke-width="6" stroke-linecap="round" />
  <path d="M1312 660l-14-14m14 14l-14 14" stroke="#d9e5ec" stroke-width="6" stroke-linecap="round" stroke-linejoin="round" />
</svg>
