<svg xmlns="http://www.w3.org/2000/svg" viewBox="0 0 1600 900" role="img" aria-labelledby="title desc">
  <title id="title">Invoice follow-up</title>
  <desc id="desc">A SoloOpsGuide templates feature image with readable labels and aligned workflow blocks for invoice follow-up.</desc>
  <defs><linearGradient id="templates-invoice-payment-checklist-svg-bg" x1="0%" y1="0%" x2="100%" y2="100%"><stop offset="0%" stop-color="#f7faf7" /><stop offset="100%" stop-color="#eff5fb" /></linearGradient></defs>
  <rect width="1600" height="900" fill="url(#templates-invoice-payment-checklist-svg-bg)" />
  <circle cx="1290" cy="164" r="150" fill="#dfe9fb" opacity=".6" />
  <circle cx="286" cy="744" r="140" fill="#d8f3f1" opacity=".8" />
  <rect x="108" y="92" width="1384" height="716" rx="46" fill="#ffffff" stroke="#d9e5ec" stroke-width="4" />
  <text x="170" y="184" font-family="Georgia, 'Times New Roman', serif" font-size="42" fill="#132838">Invoice follow-up</text>
  <rect x="170" y="200" width="250" height="18" rx="9" fill="#132838" opacity=".10" />
  <rect x="170" y="250" width="1260" height="486" rx="42" fill="#ffffff" stroke="#d9e5ec" stroke-width="3" />
  <rect x="250" y="302" width="364" height="384" rx="36" fill="#f8fbfd" stroke="#d9e5ec" stroke-width="3" />
  <rect x="650" y="302" width="700" height="384" rx="36" fill="#183b63" />
  <rect x="292" y="350" width="280" height="18" rx="9" fill="#c9d9e4" /><rect x="292" y="392" width="250" height="18" rx="9" fill="#c9d9e4" opacity=".78" /><rect x="292" y="434" width="232" height="18" rx="9" fill="#c9d9e4" opacity=".56" /><rect x="292" y="510" width="248" height="74" rx="26" fill="#d8f3f1" />
  <text x="338" y="556" font-family="Arial, sans-serif" font-size="28" font-weight="700" fill="#0f766e">Send</text>
  <rect x="714" y="356" width="246" height="72" rx="28" fill="#d8f3f1" /><rect x="1004" y="356" width="246" height="72" rx="28" fill="#dfe9fb" /><rect x="714" y="468" width="246" height="72" rx="28" fill="#fff0db" /><rect x="1004" y="468" width="246" height="72" rx="28" fill="#ecf8f2" />
  <text x="772" y="401" font-family="Arial, sans-serif" font-size="28" font-weight="700" fill="#0f766e">Track</text><text x="1064" y="401" font-family="Arial, sans-serif" font-size="28" font-weight="700" fill="#36589a">Remind</text><text x="782" y="513" font-family="Arial, sans-serif" font-size="28" font-weight="700" fill="#8a5d27">Close</text>
</svg>
