<svg xmlns="http://www.w3.org/2000/svg" viewBox="0 0 1600 900" role="img" aria-labelledby="title desc">
  <title id="title">Tool migration</title>
  <desc id="desc">A SoloOpsGuide blueprints feature image with readable labels and aligned workflow blocks for tool migration.</desc>
  <defs><linearGradient id="blueprints-migrate-from-scattered-tools-svg-bg" x1="0%" y1="0%" x2="100%" y2="100%"><stop offset="0%" stop-color="#f6fafc" /><stop offset="100%" stop-color="#eef4fb" /></linearGradient></defs>
  <rect width="1600" height="900" fill="url(#blueprints-migrate-from-scattered-tools-svg-bg)" />
  <circle cx="1290" cy="164" r="150" fill="#dfe9fb" opacity=".6" />
  <circle cx="286" cy="744" r="140" fill="#d8f3f1" opacity=".8" />
  <rect x="108" y="92" width="1384" height="716" rx="46" fill="#ffffff" stroke="#d9e5ec" stroke-width="4" />
  <text x="170" y="184" font-family="Georgia, 'Times New Roman', serif" font-size="42" fill="#122838">Tool migration</text>
  <rect x="170" y="200" width="250" height="18" rx="9" fill="#122838" opacity=".10" />
  <rect x="170" y="250" width="1260" height="486" rx="42" fill="#ffffff" stroke="#d9e5ec" stroke-width="3" />
  <rect x="228" y="310" width="980" height="102" rx="34" fill="#f8fbfd" stroke="#d9e5ec" stroke-width="3" />
  <rect x="260" y="454" width="562" height="210" rx="36" fill="#17355f" />
  <rect x="856" y="454" width="486" height="210" rx="36" fill="#f8fbfd" stroke="#d9e5ec" stroke-width="3" />
  <rect x="284" y="332" width="204" height="58" rx="29" fill="#d8f3f1" /><rect x="520" y="332" width="204" height="58" rx="29" fill="#dfe9fb" /><rect x="756" y="332" width="184" height="58" rx="29" fill="#fff0db" /><rect x="972" y="332" width="188" height="58" rx="29" fill="#ecf8f2" />
  <text x="330" y="369" font-family="Arial, sans-serif" font-size="28" font-weight="700" fill="#1d7f84">Audit</text><text x="568" y="369" font-family="Arial, sans-serif" font-size="28" font-weight="700" fill="#36589a">Merge</text><text x="806" y="369" font-family="Arial, sans-serif" font-size="28" font-weight="700" fill="#8a5d27">Move</text><text x="1016" y="369" font-family="Arial, sans-serif" font-size="28" font-weight="700" fill="#18794e">Stabilize</text>
  <text x="316" y="514" font-family="Arial, sans-serif" font-size="30" font-weight="700" fill="#eef6ff">Core stack</text><rect x="316" y="548" width="192" height="18" rx="9" fill="#eef6ff" opacity=".82" /><rect x="316" y="584" width="234" height="18" rx="9" fill="#eef6ff" opacity=".46" />
  <text x="926" y="514" font-family="Arial, sans-serif" font-size="30" font-weight="700" fill="#122838">Upgrade path</text><rect x="926" y="548" width="170" height="18" rx="9" fill="#c9d9e4" /><rect x="926" y="584" width="196" height="18" rx="9" fill="#c9d9e4" opacity=".62" />
</svg>
