<svg xmlns="http://www.w3.org/2000/svg" viewBox="0 0 1600 900" role="img" aria-labelledby="title desc">
  <title id="title">Proposal to contract handoff illustration</title>
  <desc id="desc">An editorial workflow illustration showing proposal scope, contract terms, and pre-kickoff handoff checks.</desc>
  <rect width="1600" height="900" fill="#f5fbfb"/><circle cx="1270" cy="220" r="148" fill="#dff4f2"/>
  <rect x="130" y="126" width="1340" height="648" rx="42" fill="#fff" stroke="#d8e5ec" stroke-width="4"/>
  <text x="188" y="208" font-family="Segoe UI, Arial, sans-serif" font-size="30" font-weight="700" fill="#122838">Proposal to contract handoff</text><rect x="188" y="226" width="314" height="20" rx="10" fill="#173042" opacity=".12"/>
  <rect x="188" y="302" width="426" height="350" rx="32" fill="#f8fbfd" stroke="#d8e5ec" stroke-width="3"/><rect x="660" y="302" width="286" height="350" rx="32" fill="#0f8b8d"/><rect x="992" y="302" width="420" height="350" rx="32" fill="#f8fbfd" stroke="#d8e5ec" stroke-width="3"/>
  <text x="228" y="352" font-family="Segoe UI, Arial, sans-serif" font-size="24" font-weight="700" fill="#122838">Proposal</text><text x="700" y="352" font-family="Segoe UI, Arial, sans-serif" font-size="24" font-weight="700" fill="#fff">Handoff</text><text x="1032" y="352" font-family="Segoe UI, Arial, sans-serif" font-size="24" font-weight="700" fill="#122838">Contract</text>
  <rect x="228" y="400" width="316" height="48" rx="22" fill="#fff" stroke="#d8e5ec" stroke-width="3"/><rect x="228" y="462" width="316" height="48" rx="22" fill="#fff" stroke="#d8e5ec" stroke-width="3"/><text x="270" y="429" font-family="Segoe UI, Arial, sans-serif" font-size="14" font-weight="700" fill="#334b5c">scope + exclusions</text><text x="270" y="491" font-family="Segoe UI, Arial, sans-serif" font-size="14" font-weight="700" fill="#334b5c">timeline + milestones</text>
  <rect x="720" y="408" width="164" height="42" rx="21" fill="#d6faf5" opacity=".22"/><rect x="720" y="474" width="164" height="42" rx="21" fill="#fff0db" opacity=".95"/><text x="759" y="435" font-family="Segoe UI, Arial, sans-serif" font-size="14" font-weight="700" fill="#d6faf5">owner</text><text x="742" y="501" font-family="Segoe UI, Arial, sans-serif" font-size="14" font-weight="700" fill="#8a5d27">payment terms</text>
  <rect x="1032" y="400" width="316" height="48" rx="22" fill="#dfe9fb"/><rect x="1032" y="462" width="316" height="48" rx="22" fill="#d8f3f1"/><rect x="1032" y="524" width="316" height="48" rx="22" fill="#fff0db"/>
  <text x="1082" y="429" font-family="Segoe UI, Arial, sans-serif" font-size="14" font-weight="700" fill="#36589a">acceptance</text><text x="1082" y="491" font-family="Segoe UI, Arial, sans-serif" font-size="14" font-weight="700" fill="#0f766e">kickoff ready</text><text x="1082" y="553" font-family="Segoe UI, Arial, sans-serif" font-size="14" font-weight="700" fill="#8a5d27">change rule</text>
</svg>
